<?xml version="1.0" encoding="UTF-8"?>
<svg version="1.1" xmlns="http://www.w3.org/2000/svg" width="512" height="512">
<path d="M0 0 C25.08 0 50.16 0 76 0 C81.81266619 17.43799857 87.61365804 34.86238185 93.1875 52.375 C93.85413421 54.46409225 94.520972 56.55311955 95.18798828 58.64208984 C96.65317472 63.23178001 98.11727434 67.8218149 99.58056641 72.41210938 C103.67938402 85.26890531 107.78537006 98.12341375 111.89093018 110.97805786 C112.88275216 114.08353548 113.87440153 117.18906814 114.86590576 120.29464722 C121.32240971 140.51726636 127.80376328 160.73162062 134.3125 180.9375 C138.72394951 194.63261271 143.11625342 208.33327812 147.4453125 222.0546875 C147.81588272 223.22858032 148.18645294 224.40247314 148.56825256 225.61193848 C150.43520132 231.53108345 152.29429806 237.45254727 154.14135742 243.37792969 C157.83607471 255.19784839 161.63763435 266.96593498 165.67630959 278.67210579 C167.02608393 282.5999065 168.35224163 286.5357649 169.6786871 290.47149563 C170.73103937 293.58544697 171.80435907 296.68946609 172.91036987 299.78482056 C173.52889328 301.51712418 173.52889328 301.51712418 174.15991211 303.28442383 C174.70270058 304.77973381 174.70270058 304.77973381 175.25645447 306.30525208 C180.99052983 324.45865157 180 332.81256388 180 354 C84.3 354 -11.4 354 -110 354 C-110 320.68705379 -110 320.68705379 -106.1171875 310.484375 C-105.70647003 309.2908844 -105.29575256 308.0973938 -104.87258911 306.86773682 C-103.58138103 303.14564629 -102.23114615 299.44884814 -100.875 295.75 C-100.02577415 293.34000835 -99.18071897 290.92854298 -98.33984375 288.515625 C-96.8032686 284.12242915 -95.25339834 279.73458592 -93.68314838 275.35335827 C-90.10300177 265.36064215 -86.65436715 255.32453292 -83.23046875 245.27734375 C-82.9370503 244.41654142 -82.64363186 243.5557391 -82.34132195 242.66885185 C-75.9586454 223.93373629 -69.63757834 205.17779467 -63.32452393 186.41912842 C-60.04810887 176.68358134 -56.76812011 166.94923779 -53.48828125 157.21484375 C-53.16287605 156.24898598 -52.83747086 155.2831282 -52.5022049 154.28800201 C-45.91415541 134.73436921 -39.300992 115.18933765 -32.67456055 95.64868164 C-28.19576467 82.44012462 -23.72471493 69.22901593 -19.26511765 56.01396561 C-18.41994454 53.5096167 -17.57458452 51.00533098 -16.72915649 48.50106812 C-16.45231962 47.68102861 -16.17548275 46.86098911 -15.89025688 46.01609993 C-15.33386155 44.36795957 -14.77746127 42.71982088 -14.22105598 41.07168388 C-12.59034146 36.24087468 -10.96092542 31.40962987 -9.33242607 26.5780735 C-8.32870585 23.60112576 -7.32380357 20.62457804 -6.31858444 17.64813614 C-5.84904807 16.25698358 -5.38002871 14.86565642 -4.91154861 13.4741478 C-4.27015906 11.56923188 -3.6268323 9.66496856 -2.98339844 7.76074219 C-2.44220367 6.15595001 -2.44220367 6.15595001 -1.89007568 4.51873779 C-1 2 -1 2 0 0 Z M16 53 C15.82460693 53.88856689 15.64921387 54.77713379 15.46850586 55.69262695 C8.38129864 91.38579529 -1.4947429 125.55714704 -12.74829102 160.1484375 C-14.75380077 166.31643973 -16.74936713 172.48766474 -18.74604797 178.65852928 C-22.38246033 189.89685739 -26.02235059 201.13405317 -29.66589355 212.37007141 C-35.57868368 230.60403422 -41.47707271 248.84260523 -47.36216736 267.08552551 C-47.98791526 269.02504311 -48.61385997 270.96449707 -49.23986816 272.90393066 C-51.48463796 279.85927617 -53.72619152 286.81564044 -55.96240234 293.77374268 C-56.66219926 295.94965827 -57.36306968 298.12522886 -58.06494141 300.30047607 C-59.06688606 303.4064695 -60.06516112 306.51361886 -61.0625 309.62109375 C-61.36188477 310.54656509 -61.66126953 311.47203644 -61.96972656 312.42555237 C-62.23881836 313.26666061 -62.50791016 314.10776886 -62.78515625 314.97436523 C-63.02113525 315.7077562 -63.25711426 316.44114716 -63.50024414 317.19676208 C-64.08902549 319.00935696 -64.08902549 319.00935696 -64 321 C-11.53 321 40.94 321 95 321 C92.68262795 311.58555501 92.68262795 311.58555501 89.96972656 302.34082031 C89.59732849 301.17334763 89.22493042 300.00587494 88.84124756 298.80302429 C88.44504211 297.57380753 88.04883667 296.34459076 87.640625 295.078125 C87.215149 293.74827077 86.79004903 292.41829619 86.36529541 291.08821106 C85.46502962 288.27113893 84.56262542 285.45476534 83.65844727 282.63894653 C81.49957157 275.91469852 79.35309984 269.18648611 77.20562744 262.45858955 C76.48452171 260.19967833 75.76301901 257.94089414 75.04150391 255.68211365 C70.5546213 241.63008509 66.14126272 227.55566981 61.76049805 213.47021484 C61.16202438 211.54652528 60.56347155 209.62286035 59.96484375 207.69921875 C59.66217087 206.72645996 59.35949799 205.75370117 59.0476532 204.75146484 C56.51818285 196.63477151 53.9574341 188.52816225 51.39221573 180.42271996 C49.97991552 175.95757255 48.57129466 171.49126264 47.16261482 167.02497196 C46.01820446 163.39776596 44.87149508 159.77132561 43.71875 156.14675903 C35.06438086 128.92557119 27.54067998 101.55959992 21.5 73.625 C21.05530875 71.5936139 20.60999612 69.56236373 20.1640625 67.53125 C19.10229533 62.68901695 18.04863728 57.84509262 17 53 C16.67 53 16.34 53 16 53 Z " fill="#000000" transform="translate(221,79)"/>
</svg>
